<svg width="100" height="96" viewBox="0 0 100 96" fill="none" xmlns="http://www.w3.org/2000/svg">
<g filter="url(#filter0_d_468_78)">
<rect x="15" y="15" width="54.0948" height="50" rx="25" fill="#EB3531"/>
</g>
<path d="M32.5 38.9384C32.5 37.7142 33.0606 36.5574 34.0214 35.7989L39.5214 31.4568C40.9747 30.3095 43.0253 30.3095 44.4786 31.4568L49.9786 35.7989C50.9394 36.5574 51.5 37.7142 51.5 38.9384V45.5C51.5 47.7091 49.7091 49.5 47.5 49.5H46C45.4477 49.5 45 49.0523 45 48.5V45.5C45 44.3954 44.1046 43.5 43 43.5H41C39.8954 43.5 39 44.3954 39 45.5V48.5C39 49.0523 38.5523 49.5 38 49.5H36.5C34.2909 49.5 32.5 47.7091 32.5 45.5L32.5 38.9384Z" stroke="white" stroke-width="1.5"/>
<defs>
<filter id="filter0_d_468_78" x="0.833337" y="0.833337" width="99.0947" height="95" filterUnits="userSpaceOnUse" color-interpolation-filters="sRGB">
<feFlood flood-opacity="0" result="BackgroundImageFix"/>
<feColorMatrix in="SourceAlpha" type="matrix" values="0 0 0 0 0 0 0 0 0 0 0 0 0 0 0 0 0 0 127 0" result="hardAlpha"/>
<feOffset dx="8.33333" dy="8.33333"/>
<feGaussianBlur stdDeviation="11.25"/>
<feColorMatrix type="matrix" values="0 0 0 0 0.309804 0 0 0 0 0.415686 0 0 0 0 0.984314 0 0 0 0.3 0"/>
<feBlend mode="normal" in2="BackgroundImageFix" result="effect1_dropShadow_468_78"/>
<feBlend mode="normal" in="SourceGraphic" in2="effect1_dropShadow_468_78" result="shape"/>
</filter>
</defs>
</svg>
