<svg width="96" height="96" viewBox="0 0 96 96" fill="none" xmlns="http://www.w3.org/2000/svg">
<g filter="url(#filter0_d_468_79)">
<rect x="15" y="15" width="50" height="50" rx="25" fill="#EB3531"/>
<path fill-rule="evenodd" clip-rule="evenodd" d="M39.7362 31.5931C39.9043 31.5184 40.0962 31.5184 40.2642 31.5931L48.0767 35.0654C48.3115 35.1697 48.4627 35.4025 48.4627 35.6593C48.4627 35.9162 48.3115 36.149 48.0767 36.2533L40.2642 39.7255C40.0962 39.8002 39.9043 39.8002 39.7362 39.7255L31.9238 36.2533C31.689 36.149 31.5377 35.9162 31.5377 35.6593C31.5377 35.4025 31.689 35.1697 31.9238 35.0654L39.7362 31.5931ZM33.7882 35.6593L40.0002 38.4202L46.2123 35.6593L40.0002 32.8984L33.7882 35.6593ZM31.5938 39.7389C31.7396 39.4108 32.1237 39.2631 32.4517 39.4089L40.0003 42.7638L47.5488 39.4089C47.8768 39.2631 48.2609 39.4108 48.4067 39.7389C48.5525 40.0669 48.4048 40.451 48.0767 40.5968L40.2642 44.0691C40.0962 44.1438 39.9043 44.1438 39.7363 44.0691L31.9238 40.5968C31.5957 40.451 31.448 40.0669 31.5938 39.7389ZM32.4517 43.7448C32.1237 43.599 31.7396 43.7468 31.5938 44.0748C31.448 44.4029 31.5957 44.787 31.9238 44.9328L39.7363 48.405C39.9043 48.4797 40.0962 48.4797 40.2642 48.405L48.0767 44.9328C48.4048 44.787 48.5525 44.4029 48.4067 44.0748C48.2609 43.7468 47.8768 43.599 47.5488 43.7448L40.0003 47.0997L32.4517 43.7448Z" fill="white"/>
</g>
<defs>
<filter id="filter0_d_468_79" x="0.833337" y="0.833337" width="95" height="95" filterUnits="userSpaceOnUse" color-interpolation-filters="sRGB">
<feFlood flood-opacity="0" result="BackgroundImageFix"/>
<feColorMatrix in="SourceAlpha" type="matrix" values="0 0 0 0 0 0 0 0 0 0 0 0 0 0 0 0 0 0 127 0" result="hardAlpha"/>
<feOffset dx="8.33333" dy="8.33333"/>
<feGaussianBlur stdDeviation="11.25"/>
<feColorMatrix type="matrix" values="0 0 0 0 0.309804 0 0 0 0 0.415686 0 0 0 0 0.984314 0 0 0 0.3 0"/>
<feBlend mode="normal" in2="BackgroundImageFix" result="effect1_dropShadow_468_79"/>
<feBlend mode="normal" in="SourceGraphic" in2="effect1_dropShadow_468_79" result="shape"/>
</filter>
</defs>
</svg>
