<svg width="96" height="96" viewBox="0 0 96 96" fill="none" xmlns="http://www.w3.org/2000/svg">
<g filter="url(#filter0_d_468_80)">
<rect x="15" y="15" width="50" height="50" rx="25" fill="#EB3531"/>
</g>
<g clip-path="url(#clip0_468_80)">
<path fill-rule="evenodd" clip-rule="evenodd" d="M37.7415 30.4479C37.7415 30.0889 38.0325 29.7979 38.3915 29.7979H42.1481C42.5071 29.7979 42.7981 30.0889 42.7981 30.4479C42.7981 30.8068 42.5071 31.0979 42.1481 31.0979L38.3915 31.0979C38.0325 31.0979 37.7415 30.8068 37.7415 30.4479ZM32.4674 40.8645C32.4674 36.956 35.9115 33.702 40.2697 33.702C44.628 33.702 48.072 36.956 48.072 40.8645C48.072 44.773 44.628 48.027 40.2697 48.027H35.574C35.215 48.027 34.924 48.318 34.924 48.677C34.924 49.036 35.215 49.327 35.574 49.327L40.2697 49.327C45.2477 49.327 49.372 45.5855 49.372 40.8645C49.372 36.1436 45.2477 32.402 40.2697 32.402C35.2918 32.402 31.1674 36.1436 31.1674 40.8645C31.1674 41.2235 31.4584 41.5145 31.8174 41.5145C32.1764 41.5145 32.4674 41.2235 32.4674 40.8645ZM30.2283 43.4741C30.2283 43.1151 30.5193 42.8241 30.8783 42.8241L35.574 42.8241C35.933 42.8241 36.224 43.1151 36.224 43.4741C36.224 43.8331 35.933 44.1241 35.574 44.1241L30.8783 44.1241C30.5193 44.1241 30.2283 43.8331 30.2283 43.4741ZM32.1067 46.0756C32.1067 45.7166 32.3978 45.4256 32.7567 45.4256L38.3916 45.4256C38.7506 45.4256 39.0416 45.7166 39.0416 46.0756C39.0416 46.4345 38.7506 46.7256 38.3916 46.7256H32.7567C32.3978 46.7256 32.1067 46.4346 32.1067 46.0756ZM40.9199 38.2631C40.9199 37.9041 40.6289 37.6131 40.2699 37.6131C39.9109 37.6131 39.6199 37.9041 39.6199 38.2631V41.7353C39.6199 42.0943 39.9109 42.3853 40.2699 42.3853C40.6289 42.3853 40.9199 42.0943 40.9199 41.7353L40.9199 38.2631Z" fill="white"/>
</g>
<defs>
<filter id="filter0_d_468_80" x="0.833337" y="0.833337" width="95" height="95" filterUnits="userSpaceOnUse" color-interpolation-filters="sRGB">
<feFlood flood-opacity="0" result="BackgroundImageFix"/>
<feColorMatrix in="SourceAlpha" type="matrix" values="0 0 0 0 0 0 0 0 0 0 0 0 0 0 0 0 0 0 127 0" result="hardAlpha"/>
<feOffset dx="8.33333" dy="8.33333"/>
<feGaussianBlur stdDeviation="11.25"/>
<feColorMatrix type="matrix" values="0 0 0 0 0.309804 0 0 0 0 0.415686 0 0 0 0 0.984314 0 0 0 0.3 0"/>
<feBlend mode="normal" in2="BackgroundImageFix" result="effect1_dropShadow_468_80"/>
<feBlend mode="normal" in="SourceGraphic" in2="effect1_dropShadow_468_80" result="shape"/>
</filter>
<clipPath id="clip0_468_80">
<rect width="22.5395" height="20.8333" fill="white" transform="translate(29 29.583)"/>
</clipPath>
</defs>
</svg>
