<svg width="62" height="45" viewBox="0 0 62 45" fill="none" xmlns="http://www.w3.org/2000/svg">
<path d="M53.4001 44.7396H52.5951C43.5258 44.0231 34.8125 41.7775 27.1501 38.1821C20.0317 34.8898 13.9879 30.5095 9.44009 25.3467C4.47762 19.7678 1.38491 13.4218 0.410093 6.81797C0.298629 6.0303 0.408678 5.2344 0.733566 4.47855C1.05845 3.7227 1.59141 3.02265 2.30009 2.42089C2.98937 1.81107 3.84016 1.30789 4.80207 0.941163C5.76398 0.574435 6.81745 0.351611 7.90009 0.285889H17.0001C18.971 0.287333 20.8762 0.800494 22.3717 1.7327C23.8672 2.66491 24.8544 3.95473 25.1551 5.36922C25.4874 7.1862 26.1099 8.9689 27.0101 10.6813C27.5576 11.7574 27.6706 12.9247 27.3358 14.0458C27.001 15.1669 26.2323 16.1953 25.1201 17.0101L22.9851 18.5605C26.3466 22.4142 30.8556 25.6712 36.1801 28.0917L38.3151 26.5667C39.437 25.7591 40.8531 25.2008 42.397 24.9577C43.9409 24.7145 45.5483 24.7966 47.0301 25.1942C49.3908 25.8419 51.8447 26.2938 54.3451 26.5413C56.3262 26.7576 58.1305 27.4915 59.4193 28.6052C60.7081 29.719 61.3929 31.1361 61.3451 32.5905V38.6905C61.3451 40.2769 60.4797 41.7988 58.9382 42.923C57.3967 44.0471 55.3047 44.6821 53.1201 44.6888L53.4001 44.7396ZM17.0001 4.07297H8.63509C8.22436 4.09269 7.8234 4.17268 7.45645 4.30811C7.08949 4.44353 6.76415 4.63158 6.50009 4.86089C6.24309 5.07569 6.04859 5.32603 5.92829 5.59685C5.808 5.86766 5.76439 6.15335 5.80009 6.43672C6.6488 12.4269 9.41775 18.1894 13.8851 23.2626C18.0033 27.9562 23.4867 31.9382 29.9501 34.9288C36.9405 38.2071 44.8845 40.2606 53.1551 40.9271C53.5852 40.9447 54.0157 40.8974 54.4193 40.788C54.823 40.6786 55.191 40.5096 55.5001 40.2917C56.0574 39.8768 56.3711 39.3209 56.3751 38.7413V32.6667C56.3908 32.1318 56.1359 31.6113 55.6586 31.2038C55.1812 30.7963 54.5146 30.53 53.7851 30.4555C50.8936 30.1731 48.0533 29.6618 45.3151 28.9305C44.7757 28.784 44.1901 28.7516 43.6263 28.8371C43.0626 28.9226 42.5438 29.1224 42.1301 29.4134L38.6301 31.9551C38.2202 32.2453 37.6922 32.4318 37.1247 32.4867C36.5572 32.5416 35.9804 32.4622 35.4801 32.2601C28.0117 29.1954 21.83 24.715 17.5951 19.2976C17.3052 18.9366 17.1891 18.5157 17.2652 18.1015C17.3413 17.6873 17.6051 17.3033 18.0151 17.0101L21.5151 14.4684C21.9165 14.1736 22.1926 13.8012 22.3105 13.3956C22.4284 12.99 22.3831 12.5683 22.1801 12.1809C21.1693 10.1933 20.465 8.13039 20.0801 6.03006C19.9933 5.48427 19.6297 4.98151 19.0604 4.61972C18.491 4.25793 17.7565 4.06303 17.0001 4.07297Z" fill="#005245"/>
</svg>
