<svg width="46" height="35" viewBox="0 0 46 35" fill="none" xmlns="http://www.w3.org/2000/svg">
<g clip-path="url(#clip0_10_409)">
<path d="M13.8242 8.38342C13.2511 8.5599 9.26138 9.86253 7.74589 13.8323C7.00907 15.7626 7.16735 17.5109 7.32745 18.4424C5.09151 19.9106 2.85557 21.377 0.619629 22.8452C3.30858 26.8968 5.99935 30.9484 8.68829 35.0018C11.1335 33.6737 13.5786 32.3475 16.0238 31.0194C20.0754 31.0194 24.127 31.0194 28.1804 31.0194C29.0883 30.4517 33.7949 27.3825 34.992 21.3788C35.7288 17.6874 34.7827 14.6655 34.2588 13.3101C30.7311 13.2756 27.2035 13.241 23.674 13.2046C23.6394 15.5443 23.6049 17.8857 23.5685 20.2253C23.3793 20.4564 21.2907 22.9361 18.6436 22.5304C16.4349 22.192 15.3088 20.0707 14.5574 18.6535C12.367 14.5254 13.3239 10.1463 13.8242 8.38342Z" fill="#005245"/>
<path d="M36.7731 0C39.6367 3.87696 42.5021 7.75392 45.3657 11.6327C43.1298 13.3792 40.8938 15.1258 38.6597 16.8723C37.821 15.1258 36.9823 13.3792 36.1454 11.6327C31.2205 11.5272 26.2956 11.4235 21.3689 11.318C21.3689 12.9244 21.3689 14.5309 21.3689 16.1392C21.4708 17.7583 20.5157 19.1156 19.3786 19.3885C17.7812 19.7705 16.0693 16.5303 15.9201 16.2447C15.689 15.8026 13.5404 11.5399 15.8146 8.07049C17.0863 6.13109 19.0584 5.4816 20.7394 4.92671C24.3635 3.73142 27.6638 4.30632 29.5413 4.82119C31.9519 3.21291 34.3625 1.60646 36.7731 0Z" fill="#005245"/>
</g>
<defs>
<clipPath id="clip0_10_409">
<rect width="44.7461" height="35" fill="white" transform="translate(0.619629)"/>
</clipPath>
</defs>
</svg>
