<svg width="76" height="76" viewBox="0 0 76 76" fill="none" xmlns="http://www.w3.org/2000/svg">
<rect width="76" height="76" rx="8" fill="#8CA6BC"/>
<path d="M45.5 33.6666L30.5 25.0166" stroke="white" stroke-width="2" stroke-linecap="round" stroke-linejoin="round"/>
<path d="M53 44.6668V31.3335C52.9994 30.749 52.8451 30.1748 52.5526 29.6688C52.26 29.1627 51.8396 28.7424 51.3333 28.4502L39.6667 21.7835C39.1599 21.4909 38.5851 21.3369 38 21.3369C37.4149 21.3369 36.8401 21.4909 36.3333 21.7835L24.6667 28.4502C24.1604 28.7424 23.74 29.1627 23.4474 29.6688C23.1549 30.1748 23.0006 30.749 23 31.3335V44.6668C23.0006 45.2514 23.1549 45.8255 23.4474 46.3316C23.74 46.8376 24.1604 47.2579 24.6667 47.5502L36.3333 54.2168C36.8401 54.5094 37.4149 54.6634 38 54.6634C38.5851 54.6634 39.1599 54.5094 39.6667 54.2168L51.3333 47.5502C51.8396 47.2579 52.26 46.8376 52.5526 46.3316C52.8451 45.8255 52.9994 45.2514 53 44.6668Z" stroke="white" stroke-width="2" stroke-linecap="round" stroke-linejoin="round"/>
<path d="M23.45 29.5996L38 38.0163L52.5499 29.5996" stroke="white" stroke-width="2" stroke-linecap="round" stroke-linejoin="round"/>
<path d="M38 54.8V38" stroke="white" stroke-width="2" stroke-linecap="round" stroke-linejoin="round"/>
</svg>
