<svg width="35" height="35" viewBox="0 0 35 35" fill="none" xmlns="http://www.w3.org/2000/svg">
<g clip-path="url(#clip0_10_423)">
<path d="M21.0271 21.0383C18.5832 22.9296 17.0532 24.0134 16.4369 24.3109C15.5019 24.7359 14.5031 24.9696 13.4618 24.9696C11.8255 24.9696 10.4654 24.4171 9.40289 23.2908C8.34035 22.1433 7.80908 20.677 7.80908 18.8282C7.80908 17.6594 8.06409 16.6606 8.59536 15.8106C9.29664 14.6418 10.5292 13.5367 12.2717 12.4954C14.0356 11.4754 16.9469 10.2004 21.0271 8.71281V7.77778C21.0271 5.41894 20.6445 3.78264 19.9008 2.91135C19.157 2.01882 18.0519 1.59381 16.6281 1.59381C15.5444 1.59381 14.6731 1.89132 14.0356 2.48634C13.3768 3.06011 13.0368 3.71888 13.0368 4.48391L13.0793 5.99271C13.0793 6.77899 12.8668 7.39526 12.463 7.84153C12.0592 8.26655 11.528 8.47905 10.8692 8.47905C10.2317 8.47905 9.7004 8.2453 9.29663 7.79903C8.89287 7.35276 8.68036 6.73649 8.68036 5.95021C8.68036 4.46266 9.44539 3.10261 10.9542 1.84882C12.463 0.595021 14.6518 0 17.4144 0C19.5183 0 21.2608 0.361263 22.5996 1.06254C23.6196 1.59381 24.3634 2.44384 24.8522 3.57013C25.171 4.3139 25.3197 5.84396 25.3197 8.13904V16.2143C25.3197 18.4882 25.3622 19.8695 25.4472 20.3795C25.5322 20.8895 25.681 21.2295 25.8722 21.3995C26.0635 21.5695 26.2972 21.6545 26.5523 21.6545C26.8285 21.6545 27.0623 21.5908 27.2748 21.4633C27.636 21.2295 28.3373 20.6132 29.3786 19.572V21.0383C27.4448 23.6308 25.596 24.9271 23.8322 24.9271C22.9821 24.9271 22.3021 24.6296 21.8133 24.0346C21.3033 23.4608 21.0483 22.4621 21.0271 21.0383ZM21.0271 19.3594V10.3066C18.4132 11.3267 16.7344 12.0704 15.9694 12.4954C14.6093 13.2605 13.6318 14.068 13.0368 14.8968C12.463 15.7256 12.1655 16.6393 12.1655 17.6169C12.1655 18.8707 12.548 19.8907 13.2918 20.7195C14.0356 21.5483 14.8856 21.952 15.8631 21.952C17.1594 21.952 18.8807 21.0808 21.0271 19.3594Z" fill="#005245"/>
<path d="M0.58374 25.6284C0.58374 25.6284 12.0166 31.2386 17.2018 30.9411C22.387 30.6436 30.3561 28.2848 30.3561 28.2848L26.6797 27.0522L34.2237 25.6284L33.4162 32.3649L31.2698 30.2186C31.2911 30.2186 12.5267 43.5853 0.58374 25.6284Z" fill="#005245"/>
</g>
<defs>
<clipPath id="clip0_10_423">
<rect width="33.6612" height="35" fill="white" transform="translate(0.58374)"/>
</clipPath>
</defs>
</svg>
