<svg width="30" height="39" viewBox="0 0 30 39" fill="none" xmlns="http://www.w3.org/2000/svg">
<path d="M21 15.7856C21 19.2123 18.3137 21.9901 15 21.9901C11.6863 21.9901 9 19.2123 9 15.7856C9 12.3589 11.6863 9.58106 15 9.58106C18.3137 9.58106 21 12.3589 21 15.7856Z" stroke="#EB3531" stroke-width="2" stroke-linecap="round" stroke-linejoin="round"/>
<path d="M15 1.30835C7.26801 1.30835 1 7.79003 1 15.7856C1 19.3295 2.23136 22.5759 4.27577 25.0924L11.7461 35.8973C13.3415 38.2049 16.6585 38.2049 18.2539 35.8973L25.7242 25.0924C27.7686 22.5759 29 19.3295 29 15.7856C29 7.79003 22.732 1.30835 15 1.30835Z" stroke="#EB3531" stroke-width="2" stroke-linecap="round" stroke-linejoin="round"/>
</svg>
