<svg width="34" height="32" viewBox="0 0 34 32" fill="none" xmlns="http://www.w3.org/2000/svg">
<path d="M8.55601 23.8698C15.1661 30.0961 23.9682 32.39 30.4529 30.1447C33.3363 29.1464 33.4899 25.7262 31.5211 23.5049L29.876 21.6488C28.5241 20.1236 26.0741 20.0199 24.5826 21.4249C23.5259 22.4202 21.9242 22.6967 20.6053 22.0349C18.7614 21.1097 16.1918 19.6762 14.5999 18.1768C13.0081 16.6774 11.4863 14.257 10.5041 12.5201C9.8015 11.2778 10.095 9.76908 11.1517 8.77377C12.6432 7.36884 12.5332 5.0611 10.914 3.78776L8.94339 2.23813C6.58518 0.38366 2.95421 0.528361 1.89431 3.24432C-0.48939 9.35245 1.94592 17.6435 8.55601 23.8698Z" stroke="#EB3531" stroke-width="2"/>
</svg>
