<svg width="44" height="35" viewBox="0 0 44 35" fill="none" xmlns="http://www.w3.org/2000/svg">
<path d="M11.0872 7.00818C12.946 6.23824 13.8286 4.10727 13.0587 2.24852C12.2888 0.389773 10.1578 -0.492885 8.29904 0.27705C6.44029 1.04699 5.55763 3.17796 6.32756 5.03671C7.0975 6.89546 9.22847 7.77812 11.0872 7.00818Z" fill="#005245"/>
<path d="M34.4616 7.28556C36.4735 7.28556 38.1044 5.65463 38.1044 3.64278C38.1044 1.63093 36.4735 0 34.4616 0C32.4498 0 30.8188 1.63093 30.8188 3.64278C30.8188 5.65463 32.4498 7.28556 34.4616 7.28556Z" fill="#005245"/>
<path d="M16.3534 16.4998V10.1207H27.1488V16.4998H29.7012C29.7012 16.4998 30.3878 9.72884 34.4617 8.84456C38.5355 7.96027 40.2036 15.5184 40.2036 16.4998C40.2036 17.4813 39.9088 20.6214 39.4181 21.4069C38.9274 22.1923 36.2779 24.743 35.5913 25.4313C34.9047 26.1197 33.7273 26.4127 33.7273 26.4127L33.8261 34.3628H30.8206V25.1382C30.8206 25.1382 34.6116 22.7836 34.9064 21.0167C35.2011 19.2498 35.2011 15.423 34.9064 15.423C34.6116 15.423 32.9436 15.2271 32.7476 15.5219C32.5517 15.8166 33.0424 18.9568 32.2569 19.4475C31.4714 19.9382 27.7009 19.7422 27.7009 19.7422V21.901L16.3585 22.3917V20.6248C16.3585 20.6248 12.4329 20.33 11.7463 18.4661C11.0596 16.6021 11.1567 15.5219 11.1567 15.5219L9.69655 15.3259C9.69655 15.3259 7.74567 19.7695 9.69655 21.5704C11.6474 23.3714 12.3341 24.5504 12.3341 24.5504L12.2352 33.9726H8.82589V26.3173C8.82589 26.3173 5.26489 23.4719 4.77419 22.6864C4.28349 21.901 1.4381 16.4061 4.08755 12.5776C6.737 8.74914 6.34512 8.80366 8.69981 8.7764C11.0545 8.74914 12.6254 10.1207 13.1161 11.2009C13.6068 12.2812 13.6068 14.244 13.6068 15.0277C13.6068 15.8132 14.0975 16.7946 14.0975 16.7946L16.3534 16.4998Z" fill="#005245"/>
<path d="M3.79278 24.743L6.83581 27.2953L3.79278 34.3611C3.79278 34.3611 -0.918303 36.9134 0.161923 31.8087L3.79278 24.743Z" fill="#005245"/>
<path d="M39.827 24.1057L36.7839 26.658L39.827 33.7238C39.827 33.7238 44.538 36.2761 43.4578 31.1715L39.827 24.1057Z" fill="#005245"/>
</svg>
