<svg width="65" height="65" viewBox="0 0 65 65" fill="none" xmlns="http://www.w3.org/2000/svg">
<path d="M27.0565 61.6146C26.5148 61.6146 26.0815 61.5062 25.7565 61.3708C24.6731 60.9646 22.8315 59.6375 22.8315 55.4396V37.9708H16.494C12.8648 37.9708 11.5648 36.2646 11.1044 35.2625C10.644 34.2333 10.2377 32.1479 12.6211 29.4125L33.1231 6.12084C35.8856 2.97917 38.1336 3.19584 39.2169 3.60209C40.3002 4.00834 42.1419 5.33542 42.1419 9.53333V27.0021H48.4794C52.1086 27.0021 53.4086 28.7083 53.869 29.7104C54.3294 30.7396 54.7356 32.825 52.3523 35.5604L31.8502 58.8521C29.9273 61.0458 28.2481 61.6146 27.0565 61.6146ZM37.7273 7.42084C37.6461 7.52917 37.0773 7.8 36.1836 8.82917L15.6815 32.1208C14.9231 32.9875 14.8148 33.5292 14.8148 33.6375C14.869 33.6646 15.3565 33.9354 16.494 33.9354H24.8627C25.9731 33.9354 26.894 34.8563 26.894 35.9667V55.4667C26.894 56.8208 27.1377 57.4167 27.2461 57.5792C27.3273 57.4708 27.8961 57.2 28.7898 56.1708L49.2919 32.8792C50.0502 32.0125 50.1586 31.4708 50.1586 31.3625C50.1044 31.3354 49.6169 31.0646 48.4794 31.0646H40.1106C39.0002 31.0646 38.0794 30.1438 38.0794 29.0333V9.53333C38.1065 8.17917 37.8356 7.61042 37.7273 7.42084Z" fill="#EB3531"/>
</svg>
