<svg width="75" height="75" viewBox="0 0 75 75" fill="none" xmlns="http://www.w3.org/2000/svg">
<path d="M19.8145 29.1146C17.8916 29.1146 15.9416 28.4104 14.452 26.975C9.46866 22.2354 7.46449 17.0625 8.62908 11.9979C10.0103 6.0396 15.2374 3.38544 19.8145 3.38544C24.3916 3.38544 29.6457 6.06669 30.9999 11.9979C32.1645 17.0625 30.1332 22.2354 25.177 26.975C23.6874 28.4104 21.7645 29.1146 19.8145 29.1146ZM12.5832 12.9188C11.5541 17.4417 14.5603 21.45 17.2687 24.0229C18.7041 25.4042 20.952 25.3771 22.3874 24.0229C25.0957 21.45 28.102 17.4417 27.0457 12.8917C26.1249 8.88335 22.577 7.44794 19.8416 7.44794C17.0791 7.44794 13.5312 8.88335 12.5832 12.9188Z" fill="#EB3531"/>
<path d="M19.9229 16.7917C18.4333 16.7917 17.2146 15.5729 17.2146 14.0833C17.2146 12.5937 18.4063 11.375 19.9229 11.375H19.95C21.4396 11.375 22.6583 12.5937 22.6583 14.0833C22.6583 15.5729 21.4396 16.7917 19.9229 16.7917Z" fill="#EB3531"/>
<path d="M55.0772 61.6146C53.1543 61.6146 51.2043 60.9104 49.6876 59.475C44.6772 54.7354 42.646 49.5625 43.8376 44.4708C45.2189 38.5396 50.473 35.8583 55.0772 35.8583C59.6814 35.8583 64.9355 38.5396 66.3168 44.4708C67.4814 49.5354 65.4501 54.7354 60.4397 59.4479C58.9501 60.9104 57.0272 61.6146 55.0772 61.6146ZM55.0772 39.9479C52.3147 39.9479 48.7397 41.3833 47.7918 45.4188C46.7356 49.9417 49.7689 53.9771 52.4772 56.55C53.9126 57.9313 56.1876 57.9313 57.6501 56.55C60.3585 53.9771 63.3918 49.9688 62.3356 45.4458C61.4418 41.3833 57.8668 39.9479 55.0772 39.9479Z" fill="#EB3531"/>
<path d="M55.1854 49.2917C53.6958 49.2917 52.4771 48.0729 52.4771 46.5833C52.4771 45.0937 53.6687 43.875 55.1854 43.875H55.2125C56.7021 43.875 57.9208 45.0937 57.9208 46.5833C57.9208 48.0729 56.675 49.2917 55.1854 49.2917Z" fill="#EB3531"/>
<path d="M37.5 53.4896H30.2416C27.1 53.4896 24.3646 51.5938 23.2812 48.6688C22.1708 45.7438 22.9833 42.5209 25.3396 40.4354L46.9791 21.5042C48.2791 20.3667 48.3062 18.8229 47.9271 17.7667C47.5208 16.7104 46.4916 15.5729 44.7583 15.5729H37.5C36.3896 15.5729 35.4687 14.6521 35.4687 13.5417C35.4687 12.4313 36.3896 11.5104 37.5 11.5104H44.7583C47.9 11.5104 50.6354 13.4063 51.7187 16.3313C52.8291 19.2563 52.0166 22.4792 49.6604 24.5646L28.0208 43.4959C26.7208 44.6334 26.6937 46.1771 27.0729 47.2334C27.4791 48.2896 28.5083 49.4271 30.2416 49.4271H37.5C38.6104 49.4271 39.5312 50.3479 39.5312 51.4584C39.5312 52.5688 38.6104 53.4896 37.5 53.4896Z" fill="#EB3531"/>
<path d="M37.5 53.4896H30.2416C27.1 53.4896 24.3646 51.5938 23.2812 48.6688C22.1708 45.7438 22.9833 42.5209 25.3396 40.4354L46.9791 21.5042C48.2791 20.3667 48.3062 18.8229 47.9271 17.7667C47.5208 16.7104 46.4916 15.5729 44.7583 15.5729H37.5C36.3896 15.5729 35.4687 14.6521 35.4687 13.5417C35.4687 12.4313 36.3896 11.5104 37.5 11.5104H44.7583C47.9 11.5104 50.6354 13.4063 51.7187 16.3313C52.8291 19.2563 52.0166 22.4792 49.6604 24.5646L28.0208 43.4959C26.7208 44.6334 26.6937 46.1771 27.0729 47.2334C27.4791 48.2896 28.5083 49.4271 30.2416 49.4271H37.5C38.6104 49.4271 39.5312 50.3479 39.5312 51.4584C39.5312 52.5688 38.6104 53.4896 37.5 53.4896Z" fill="#EB3531"/>
</svg>
