<svg width="65" height="65" viewBox="0 0 65 65" fill="none" xmlns="http://www.w3.org/2000/svg">
<path d="M43.3333 61.6146H21.6667C11.7812 61.6146 6.09375 55.9271 6.09375 46.0417V18.9584C6.09375 9.07294 11.7812 3.38544 21.6667 3.38544H43.3333C53.2188 3.38544 58.9062 9.07294 58.9062 18.9584V46.0417C58.9062 55.9271 53.2188 61.6146 43.3333 61.6146ZM21.6667 7.44794C13.9208 7.44794 10.1562 11.2125 10.1562 18.9584V46.0417C10.1562 53.7875 13.9208 57.5521 21.6667 57.5521H43.3333C51.0792 57.5521 54.8438 53.7875 54.8438 46.0417V18.9584C54.8438 11.2125 51.0792 7.44794 43.3333 7.44794H21.6667Z" fill="#EB3531"/>
<path d="M24.3749 30.0896C23.9145 30.0896 23.4541 30.0084 23.0208 29.8188C21.7749 29.2771 20.9895 28.0583 20.9895 26.7313V5.41669C20.9895 4.30627 21.9103 3.38544 23.0208 3.38544H41.9791C43.0895 3.38544 44.0103 4.30627 44.0103 5.41669V26.7041C44.0103 28.0583 43.2249 29.2771 41.9791 29.7917C40.7603 30.3334 39.325 30.0897 38.3229 29.1688L32.4999 23.8333L26.6769 29.1959C26.0269 29.7918 25.2145 30.0896 24.3749 30.0896ZM32.4999 19.5272C33.3124 19.5272 34.1519 19.825 34.8019 20.4208L39.9478 25.1604V7.44794H25.052V25.1604L30.1979 20.4208C30.8479 19.825 31.6874 19.5272 32.4999 19.5272Z" fill="#EB3531"/>
<path d="M47.3959 39.9479H35.8855C34.7751 39.9479 33.8542 39.0271 33.8542 37.9167C33.8542 36.8063 34.7751 35.8854 35.8855 35.8854H47.3959C48.5063 35.8854 49.4272 36.8063 49.4272 37.9167C49.4272 39.0271 48.5063 39.9479 47.3959 39.9479Z" fill="#EB3531"/>
<path d="M47.3958 50.7812H24.375C23.2646 50.7812 22.3438 49.8604 22.3438 48.75C22.3438 47.6396 23.2646 46.7188 24.375 46.7188H47.3958C48.5063 46.7188 49.4271 47.6396 49.4271 48.75C49.4271 49.8604 48.5063 50.7812 47.3958 50.7812Z" fill="#EB3531"/>
</svg>
