<svg width="65" height="65" viewBox="0 0 65 65" fill="none" xmlns="http://www.w3.org/2000/svg">
<path d="M55.8545 57.0525C55.4219 57.1845 54.9539 57.2628 54.527 57.1134C54.2405 57.0131 53.9781 56.8489 53.7603 56.6312L36.4812 39.352C35.6957 38.5666 35.6957 37.2666 36.4812 36.4812L57.4166 15.5458C57.9312 15.0312 58.7166 14.8416 59.4207 15.0312C60.1249 15.2479 60.6665 15.8166 60.829 16.5208C61.3436 18.8229 61.6145 21.3958 61.6145 24.3749V40.6249C61.6145 48.127 60.0437 53.1916 56.6312 56.6312C56.4166 56.8457 56.1414 56.9649 55.8545 57.0525ZM44.3229 34.3811C42.3703 36.3337 42.3703 39.4995 44.3229 41.4521L50.6675 47.7966C52.9159 50.0451 56.5769 49.5297 57.1179 46.3963C57.4093 44.7087 57.552 42.7929 57.552 40.6249V24.3749C57.552 23.144 56.1097 22.5943 55.2393 23.4647L44.3229 34.3811Z" fill="#EB3531"/>
<path d="M16.9815 60.8834C16.819 60.8834 16.6837 60.8563 16.5212 60.8293C7.55659 58.7709 3.38574 52.3522 3.38574 40.6251V24.3751C3.38574 9.66883 9.66908 3.3855 24.3753 3.3855H40.6253C52.3524 3.3855 58.7711 7.55635 60.8295 16.5209C60.992 17.198 60.7753 17.9293 60.2878 18.4168L18.417 60.2876C18.0378 60.6667 17.5232 60.8834 16.9815 60.8834ZM24.3753 7.46153C24.3753 7.45406 24.369 7.448 24.3615 7.448C11.8866 7.45127 7.44824 11.8943 7.44824 24.3751V40.6251C7.44824 48.5192 9.28274 53.1073 13.6098 55.4811C15.2169 56.3628 17.1658 55.7971 18.4619 54.501L54.4836 18.4793C55.7748 17.1882 56.3424 15.2487 55.4683 13.6455C53.1059 9.31206 48.4977 7.47507 40.5982 7.47507H24.3889C24.3814 7.47507 24.3753 7.46901 24.3753 7.46153Z" fill="#EB3531"/>
<path d="M40.6248 61.6146H24.3748C21.3956 61.6146 18.8498 61.3709 16.5206 60.8292C15.7894 60.6667 15.2206 60.125 15.031 59.4209C14.8143 58.7167 15.031 57.9583 15.5456 57.4167L36.481 36.4813C37.2665 35.6959 38.5665 35.6959 39.3519 36.4813L56.6311 53.7605C57.0102 54.1396 57.2269 54.6542 57.2269 55.1959C57.2269 55.7375 57.0102 56.2521 56.6311 56.6313C53.1915 60.0438 48.1269 61.6146 40.6248 61.6146ZM23.4645 55.2395C22.5941 56.1099 23.1439 57.5521 24.3748 57.5521H40.6248C42.7995 57.5521 44.7137 57.41 46.3971 57.1198C49.5306 56.5797 50.0449 52.916 47.7965 50.6676L41.452 44.3231C39.4994 42.3704 36.3335 42.3704 34.3809 44.3231L23.4645 55.2395Z" fill="#EB3531"/>
<path d="M24.6999 36.0478C22.9936 36.0478 21.2874 35.4249 19.9332 34.152C15.6269 30.0624 13.8937 25.5666 14.9228 21.1791C15.952 16.6833 19.879 13.6499 24.6999 13.6499C29.5207 13.6499 33.4478 16.6833 34.477 21.1791C35.4791 25.5937 33.7457 30.0624 29.4395 34.152C28.1124 35.3978 26.4061 36.0478 24.6999 36.0478ZM18.877 22.0728C18.0103 25.7562 20.502 29.0603 22.7499 31.1999C23.8603 32.2562 25.5666 32.2562 26.6499 31.1999C28.8707 29.0874 31.3624 25.7832 30.5228 22.0728C29.7915 18.8499 26.9207 17.6853 24.6999 17.6853C22.479 17.6853 19.6353 18.8499 18.877 22.0728Z" fill="#EB3531"/>
<path d="M24.7811 25.7021C23.2915 25.7021 22.0728 24.4833 22.0728 22.9937C22.0728 21.5042 23.2644 20.2854 24.7811 20.2854H24.8082C26.2978 20.2854 27.5165 21.5042 27.5165 22.9937C27.5165 24.4833 26.2707 25.7021 24.7811 25.7021Z" fill="#EB3531"/>
</svg>
