<svg width="65" height="65" viewBox="0 0 65 65" fill="none" xmlns="http://www.w3.org/2000/svg">
<path d="M40.6251 61.6146H24.3751C9.66883 61.6146 3.3855 55.3313 3.3855 40.625V24.375C3.3855 9.66877 9.66883 3.38544 24.3751 3.38544H40.6251C55.3313 3.38544 61.6147 9.66877 61.6147 24.375V40.625C61.6147 55.3313 55.3313 61.6146 40.6251 61.6146ZM24.3751 7.44794C11.8897 7.44794 7.448 11.8896 7.448 24.375V40.625C7.448 53.1104 11.8897 57.5521 24.3751 57.5521H40.6251C53.1105 57.5521 57.5522 53.1104 57.5522 40.625V24.375C57.5522 11.8896 53.1105 7.44794 40.6251 7.44794H24.3751Z" fill="#EB3531"/>
<path d="M37.7814 61.6146C36.8606 61.6146 36.048 60.9916 35.8042 60.0708L22.3981 5.90414C22.1273 4.82081 22.8043 3.71042 23.8877 3.43959C24.971 3.16876 26.0813 3.81876 26.3522 4.92918L39.7584 59.0958C40.0293 60.1792 39.3522 61.2896 38.2689 61.5604C38.1064 61.5875 37.9439 61.6146 37.7814 61.6146Z" fill="#EB3531"/>
<path d="M5.41627 42.6562C4.52252 42.6562 3.73718 42.0875 3.46634 41.1937C3.14134 40.1104 3.76412 38.9999 4.84746 38.6749L30.658 31.1458C31.7413 30.8208 32.8517 31.4437 33.1767 32.527C33.5017 33.6103 32.8787 34.7208 31.7954 35.0458L5.98507 42.5749C5.79549 42.6291 5.60585 42.6562 5.41627 42.6562Z" fill="#EB3531"/>
</svg>
